<svg width="200" height="32" viewBox="0 0 200 32" fill="none" xmlns="http://www.w3.org/2000/svg">
<path fill-rule="evenodd" clip-rule="evenodd" d="M10.7236 26.6337C10.7236 29.7672 11.3637 30.9729 12.9769 30.9729C15.3437 30.9729 16.5041 27.7602 16.5041 21.3309C16.5041 15.0231 15.4176 12.2501 12.9769 12.2501C12.1138 12.2501 11.5519 12.5318 10.7236 13.3757V26.6337ZM10.729 12.7313C12.532 11.1266 14.2944 10.3627 16.2103 10.3627C20.4544 10.3627 23.5312 14.3413 23.5312 19.8042C23.5312 26.4747 19.0647 31.4948 13.0939 31.4948C11.2919 31.4948 10.6919 31.3346 7.27225 30.129C6.63507 29.889 6.44974 29.8484 6.14852 29.8484C5.28688 29.8484 4.75925 30.3711 4.459 31.4948H4.08246V9.31812C4.08246 6.90684 3.93087 5.98287 3.33136 5.13994C2.80764 4.33654 2.13232 4.01433 0.892689 3.9738L0.816406 3.53415C4.12257 2.80869 8.66493 1.52406 10.729 0.72168V12.7313Z" fill="#1E293B"/>
<path d="M24.3867 3.5352C27.693 2.80973 32.2363 1.52509 34.3003 0.72168V25.8334C34.3003 29.89 34.6031 30.4523 37.0416 30.5717V30.9741H24.9154V30.5717C27.356 30.4523 27.6567 29.9294 27.6567 25.8334V9.31917C27.6567 6.90789 27.5056 5.9839 26.9047 5.14099C26.3799 4.33757 25.7016 4.01538 24.464 3.97797L24.3867 3.5352Z" fill="#1E293B"/>
<path fill-rule="evenodd" clip-rule="evenodd" d="M46.2414 12.5259C45.7156 13.6931 45.3792 16.9067 45.3792 20.9238C45.3792 25.4242 45.7538 28.5163 46.4276 29.6813C46.9166 30.5273 47.6677 30.968 48.5338 30.968C49.5093 30.968 50.2957 30.4047 50.7861 29.3208C51.3108 28.1555 51.6463 24.943 51.6463 21.0059C51.6463 16.4235 51.2751 13.3314 50.5979 12.1673C50.1103 11.3233 49.3573 10.8806 48.4956 10.8806C47.5186 10.8806 46.7303 11.4429 46.2414 12.5259ZM55.4802 13.0554C57.7698 15.1445 58.8964 17.717 58.8964 21.0917C58.8964 26.8757 54.2798 31.4966 48.4977 31.4966C42.6761 31.4966 38.1328 26.8757 38.1328 20.9295C38.1328 14.9855 42.6761 10.3635 48.4977 10.3635C51.2019 10.3635 53.4524 11.248 55.4802 13.0554Z" fill="#1E293B"/>
<path fill-rule="evenodd" clip-rule="evenodd" d="M68.7286 12.5259C68.2049 13.6931 67.8675 16.9067 67.8675 20.9238C67.8675 25.4242 68.2421 28.5163 68.9169 29.6813C69.4069 30.5273 70.156 30.968 71.0231 30.968C71.9996 30.968 72.7859 30.4047 73.2765 29.3208C73.7991 28.1555 74.1375 24.943 74.1375 21.0059C74.1375 16.4235 73.763 13.3314 73.0852 12.1673C72.5986 11.3233 71.8475 10.8806 70.984 10.8806C70.0065 10.8806 69.2176 11.4429 68.7286 12.5259ZM77.9647 13.0554C80.2541 15.1445 81.3799 17.717 81.3799 21.0917C81.3799 26.8757 76.7637 31.4966 70.9821 31.4966C65.1625 31.4966 60.6211 26.8757 60.6211 20.9295C60.6211 14.9855 65.1625 10.3635 70.9821 10.3635C73.6854 10.3635 75.9367 11.248 77.9647 13.0554Z" fill="#1E293B"/>
<path fill-rule="evenodd" clip-rule="evenodd" d="M91.8915 26.628C91.8915 29.7615 92.5297 30.9672 94.1449 30.9672C96.5097 30.9672 97.6766 27.7546 97.6766 21.3252C97.6766 15.0174 96.5845 12.2444 94.1449 12.2444C93.2807 12.2444 92.7199 12.5261 91.8915 13.37V26.628ZM91.8951 12.7313C93.697 11.1266 95.4634 10.3627 97.3793 10.3627C101.621 10.3627 104.699 14.3413 104.699 19.8042C104.699 26.4747 100.231 31.4948 94.2599 31.4948C92.457 31.4948 91.8584 31.3346 88.4412 30.129C87.8031 29.889 87.6148 29.8484 87.3145 29.8484C86.451 29.8484 85.9252 30.3711 85.626 31.4948H85.2494V9.31812C85.2494 6.90684 85.1003 5.98287 84.4993 5.13994C83.9726 4.33654 83.2983 4.01433 82.0587 3.9738L81.9844 3.53415C85.2886 2.80869 89.83 1.52406 91.8951 0.72168V12.7313Z" fill="#1E293B"/>
<path d="M105.559 3.5352C108.861 2.80973 113.404 1.52509 115.469 0.72168V25.8334C115.469 29.89 115.77 30.4523 118.21 30.5717V30.9741H106.082V30.5717C108.522 30.4523 108.824 29.9294 108.824 25.8334V9.31917C108.824 6.90789 108.672 5.9839 108.071 5.14099C107.547 4.33757 106.871 4.01538 105.629 3.97797L105.559 3.5352Z" fill="#1E293B"/>
<path fill-rule="evenodd" clip-rule="evenodd" d="M127.416 12.5259C126.888 13.6931 126.551 16.9067 126.551 20.9238C126.551 25.4242 126.925 28.5163 127.6 29.6813C128.089 30.5273 128.842 30.968 129.706 30.968C130.683 30.968 131.469 30.4047 131.958 29.3208C132.484 28.1555 132.822 24.943 132.822 21.0059C132.822 16.4235 132.446 13.3314 131.769 12.1673C131.281 11.3233 130.531 10.8806 129.668 10.8806C128.692 10.8806 127.902 11.4429 127.416 12.5259ZM136.65 13.0554C138.942 15.1445 140.066 17.717 140.066 21.0917C140.066 26.8757 135.449 31.4966 129.667 31.4966C123.847 31.4966 119.305 26.8757 119.305 20.9295C119.305 14.9855 123.847 10.3635 129.667 10.3635C132.369 10.3635 134.62 11.248 136.65 13.0554Z" fill="#1E293B"/>
<path fill-rule="evenodd" clip-rule="evenodd" d="M149.888 12.5259C149.362 13.6931 149.027 16.9067 149.027 20.9238C149.027 25.4242 149.403 28.5163 150.077 29.6813C150.565 30.5273 151.316 30.968 152.18 30.968C153.156 30.968 153.943 30.4047 154.433 29.3208C154.958 28.1555 155.296 24.943 155.296 21.0059C155.296 16.4235 154.922 13.3314 154.242 12.1673C153.755 11.3233 153.006 10.8806 152.141 10.8806C151.165 10.8806 150.375 11.4429 149.888 12.5259ZM159.127 13.0554C161.419 15.1445 162.545 17.717 162.545 21.0917C162.545 26.8757 157.927 31.4966 152.142 31.4966C146.327 31.4966 141.781 26.8757 141.781 20.9295C141.781 14.9855 146.327 10.3635 152.142 10.3635C154.848 10.3635 157.098 11.248 159.127 13.0554Z" fill="#1E293B"/>
<path d="M173.33 14.1915C175.619 11.7012 178.096 10.375 180.351 10.375C182.905 10.375 184.367 11.6212 184.818 14.1915C187.446 11.4996 189.588 10.375 191.951 10.375C193.19 10.375 194.317 10.8562 195.105 11.6617C195.93 12.5867 196.308 13.9109 196.308 16.081V26.646C196.27 29.9396 196.534 30.3814 198.557 30.583V30.9853H187.896V30.583C189.472 30.3814 189.696 29.9012 189.66 26.646V17.4863C189.66 15.6372 189.546 14.7548 189.209 14.1915C188.912 13.6697 188.232 13.307 187.557 13.307C186.695 13.307 185.905 13.7508 184.818 14.7943V26.646C184.777 29.9396 185.006 30.3814 186.582 30.583V30.9853H176.405V30.583C177.985 30.3814 178.209 29.9012 178.173 26.646V17.4863C178.173 15.7183 178.057 14.9149 177.685 14.311C177.345 13.7103 176.708 13.3486 175.995 13.3486C175.095 13.3486 174.379 13.7508 173.33 14.7943V26.646C173.288 29.9012 173.515 30.3814 175.095 30.583V30.9853H163.677V30.583C166.345 30.4636 166.682 29.9396 166.682 25.8426V19.2541C166.682 16.8439 166.53 15.8815 165.931 15.0365C165.408 14.2705 164.732 13.9514 163.489 13.8714L163.418 13.4681C167.022 12.5867 168.673 12.0639 173.33 10.375V14.1915Z" fill="#1E293B"/>
</svg>
