<?xml version="1.0" encoding="UTF-8" standalone="no"?>
<!-- Created with Inkscape (http://www.inkscape.org/) -->

<svg
   version="1.1"
   id="svg2"
   width="623.54669"
   height="311.78668"
   viewBox="0 0 623.54669 311.78668"
   sodipodi:docname="Flexi.eps"
   xmlns:inkscape="http://www.inkscape.org/namespaces/inkscape"
   xmlns:sodipodi="http://sodipodi.sourceforge.net/DTD/sodipodi-0.dtd"
   xmlns="http://www.w3.org/2000/svg"
   xmlns:svg="http://www.w3.org/2000/svg">
  <defs
     id="defs6" />
  <sodipodi:namedview
     id="namedview4"
     pagecolor="#ffffff"
     bordercolor="#000000"
     borderopacity="0.25"
     inkscape:showpageshadow="2"
     inkscape:pageopacity="0.0"
     inkscape:pagecheckerboard="0"
     inkscape:deskcolor="#d1d1d1" />
  <g
     id="g8"
     inkscape:groupmode="layer"
     inkscape:label="ink_ext_XXXXXX"
     transform="matrix(1.3333333,0,0,-1.3333333,0,311.78667)">
    <g
       id="g10"
       transform="scale(0.1)">
      <path
         d="m 2337.89,1403.85 c -108.51,-12.96 -164.6,-19.89 -285.05,-8.62 29.33,99.9 81.76,199.45 172.43,267.38 92.05,63.39 193.74,62.88 260.91,7.56 46.52,-48.08 106.27,-223.53 -148.29,-266.32 z m 50.75,465.38 c -213.3,-0.6 -526.93,-148.63 -631.04,-494.16 -84.28,-280.2 44.46,-629.519 496.53,-646.429 136.89,-1.539 275.59,20.578 404.8,68.988 -2.3,-2.668 -32.16,151.262 -31.5,151.262 -100.57,-34.801 -253.46,-60.93 -362.86,-49.75 -154.78,28.07 -286.17,145.919 -257.16,349.729 0.84,-2.17 239.15,-38.08 409.79,9.11 351.25,105.52 380.43,322.13 323.47,437.42 -82.85,167.94 -284.82,174.23 -352.03,173.83 z m 1264.96,-50.28 -270.33,-339.79 -204.24,339.79 H 2873.08 L 3174.31,1317.8 2745.38,779.289 h 215.64 l 305.18,385.571 231.41,-385.219 h 305.8 l -327.31,545.169 390,494.14 z m 574.9,-774.01 188.6,774.01 H 4146.88 L 3956.4,1043.28 c 0,0 -18.58,-75.331 -20.36,-129.19 -2.22,-67.891 4.46,-106.16 18.44,-134.801 h 316.39 c -26.76,26.691 -56.6,54.531 -60.7,113.359 -5.02,70.813 18.33,152.292 18.33,152.292 z m -2767.25,0 315.61,1293.41 H 1507.54 L 1189.2,1043.28 c 0,0 -18.68,-75.331 -20.28,-129.19 -2.39,-67.891 4.43,-106.16 18.33,-134.801 h 316.42 c -26.69,26.691 -56.54,54.531 -60.71,113.359 -4.93,70.813 18.29,152.292 18.29,152.292 z m -360.74,1130.21 c 49.37,1.49 130.72,-1.3 130.72,-1.3 0,0 39.96,161.13 39.96,163.34 -29.45,0.17 -167.88,1.81 -195.94,0.72 -246.184,0 -445.871,-149.57 -501.887,-378.84 -0.449,-0.4 -37.91,-140.75 -37.074,-140.12 -0.473,-0.63 -215.152,0 -215.152,0 L 281.27,1656.16 h 214.394 c 0,0 -146.07,-609.71 -205.891,-876.871 H 558.992 L 772.25,1656.16 h 328.89 l 39.14,162.79 H 812.246 l 49.703,188.1 c 29.828,115.84 153.991,166.52 238.561,168.1 z m 3277.7,162.99 c -90.72,-1.05 -166.33,-71.5 -168.55,-157.11 -2.33,-85.91 69.31,-154.36 160.31,-153.1 90.51,1.12 165.94,71.55 168.22,157.16 2.44,85.86 -69.31,154.35 -159.98,153.05 z m 34.12,-1412.531 c 0,65.192 53.13,118.241 118.4,118.241 65.16,0 118.19,-53.049 118.19,-118.241 0,-65.218 -53.03,-118.398 -118.19,-118.398 -65.27,0 -118.4,53.18 -118.4,118.398 z m -27.79,0 c 0,-80.55 65.64,-146.109 146.19,-146.109 80.39,0 145.88,65.559 145.88,146.109 0,80.481 -65.49,145.961 -145.88,145.961 -80.55,0 -146.19,-65.48 -146.19,-145.961 z m 124.47,6.61 h 17.83 c 20.3,0 32.97,10.793 32.97,27.179 0,18.133 -12.67,26.461 -32.24,26.461 -9.46,0 -15.63,-0.777 -18.56,-1.507 z m -29.76,72.881 c 11.25,1.94 28.1,3.45 45.49,3.45 23.63,0 39.8,-3.96 50.85,-13.249 8.89,-7.61 14.13,-19.012 14.13,-32.961 0,-21.289 -14.4,-35.692 -29.91,-41.289 v -0.742 c 11.78,-4.438 18.91,-15.899 23.01,-31.727 5.18,-20.512 9.55,-39.621 12.95,-45.961 h -31.02 c -2.44,4.938 -6.28,18.391 -11.05,38.848 -4.63,21.511 -12.38,28.351 -29.41,28.781 h -15.28 v -67.629 h -29.76 V 1005.1"
         style="fill:#1E293B;fill-opacity:1;fill-rule:nonzero;stroke:none"
         id="path12" />
      <path
         d="M 0,494.289 C 728.301,-51.0508 1479.99,-77.6094 2323.24,93 c 800.09,162.031 1587,346.59 2352.75,-67.668 -728.54,545.219 -1480.24,572 -2323.5,401.309 C 1552.59,264.66 765.23,79.8086 0,494.289"
         style="fill:#1E293B;fill-opacity:1;fill-rule:nonzero;stroke:none"
         id="path14" />
    </g>
  </g>
</svg>
