<svg width="200" height="31" viewBox="0 0 200 31" fill="none" xmlns="http://www.w3.org/2000/svg">
  <path fillRule="evenodd" clipRule="evenodd"
    d="M3.6302 30.9977H0.820494C0.586067 30.9977 0 30.9977 0 30.6465C0 30.4134 0.117214 30.2952 0.468854 30.1781C3.04527 29.3586 3.6302 27.9558 3.6302 25.9688V5.03121C3.6302 3.159 3.04413 1.75513 0.468854 0.819589C0.117214 0.819589 0 0.585423 0 0.468339C0 0.00113964 0.586067 0.117089 0.820494 0.117089H24.0048C29.2737 0.117089 33.6072 4.32757 33.6072 9.59067C33.6072 14.8549 29.2737 19.0642 24.0048 19.0642H12.2949V26.1996C12.4132 28.0706 12.9982 29.3563 15.4574 30.1759C15.809 30.2941 15.9251 30.4112 15.9251 30.6442C15.9251 30.9954 15.3401 30.9955 15.1057 30.9955H3.6302V30.9977ZM176.464 19.6519H181.967L176.464 10.2943L175.877 9.35763L170.961 19.6519H176.464ZM176.464 0.0022809H180.211L195.901 27.608C196.37 28.3071 196.955 29.0107 197.659 29.3597C198.244 29.828 198.946 29.9462 199.531 30.1793C199.767 30.2975 200 30.4146 200 30.6476C200 30.9989 199.415 30.9989 199.18 30.9989H185.246C185.013 30.9989 184.308 30.9989 184.308 30.6476C184.308 30.4146 184.544 30.2964 184.779 30.1793C185.481 29.9462 185.948 29.595 186.181 28.8936C186.417 28.074 186.181 27.608 185.596 26.5531C184.801 24.8651 183.982 23.1887 183.138 21.5242H170.023L169.907 21.7572C169.789 22.2255 168.853 23.8624 168.149 25.6175C167.213 27.4886 166.862 27.9558 167.095 28.8925C167.213 29.5939 167.797 29.9451 168.499 30.1781C168.735 30.2964 168.853 30.4134 168.853 30.6465C168.853 30.9977 168.266 30.9977 168.033 30.9977H161.592C161.358 30.9977 160.771 30.9977 160.771 30.6465C160.771 30.4134 160.889 30.2952 161.24 30.1781C161.827 29.9451 162.527 29.8269 163.113 29.3586C163.815 29.0096 164.402 28.3059 164.869 27.6068L165.69 25.8506L174.589 7.25353L173.299 5.03121C172.131 3.159 170.958 1.9893 169.67 1.28793C169.085 0.936676 168.499 0.936677 167.914 0.702509C167.563 0.585425 167.445 0.468338 167.563 0.23417C167.563 1.45673e-06 167.796 0.117084 167.914 0H176.464V0.0022809ZM141.451 30.8795H141.92C163.467 30.8795 163.234 0.118225 141.92 0.118225H124.239C123.888 0.118225 123.304 0.00113903 123.304 0.469475C123.304 0.586559 123.537 0.820725 123.77 0.820725C126.347 1.63918 126.933 3.04305 127.049 4.79817V26.203C126.933 28.074 126.347 29.3597 123.77 30.1793C123.537 30.2975 123.304 30.4146 123.304 30.6476C123.304 30.9989 123.889 30.9989 124.239 30.9989H135.598V30.8806L141.451 30.8795ZM141.451 2.34055C144.732 2.34055 147.426 5.03121 147.426 8.30502V22.5756C147.426 25.8506 144.732 28.5412 141.451 28.5412H135.596V2.34055H141.451ZM96.8387 19.6519H102.342L96.8387 10.2943L96.2537 9.35763L91.3365 19.6519H96.8387ZM96.8387 0.0022809H100.703L116.394 27.608C116.746 28.3071 117.332 29.0107 118.034 29.3597C118.619 29.828 119.323 29.9462 120.025 30.1793C120.259 30.2975 120.492 30.4146 120.492 30.6476C120.492 30.9989 119.79 30.9989 119.556 30.9989H105.624C105.388 30.9989 104.803 30.9989 104.803 30.6476C104.803 30.4146 104.92 30.2964 105.27 30.1793C105.857 29.9462 106.441 29.595 106.559 28.8936C106.793 28.074 106.559 27.608 106.091 26.5531C105.27 24.7991 104.335 23.1611 103.516 21.5242H90.3976L90.2815 21.7572C90.1643 22.2255 89.3438 23.8624 88.5245 25.6175C87.7051 27.4886 87.2374 27.9558 87.4718 28.8925C87.7063 29.5939 88.174 29.9451 88.8773 30.1781C89.1105 30.2964 89.345 30.4134 89.345 30.6465C89.345 30.9977 88.76 30.9977 88.4095 30.9977H82.0846C81.8502 30.9977 81.1469 30.9977 81.1469 30.6465C81.1469 30.4134 81.3813 30.2952 81.6157 30.1781C82.319 29.9451 82.9039 29.8269 83.6072 29.3586C84.1921 29.0096 84.8954 28.3059 85.2459 27.6068L86.0653 25.8506L95.0827 7.25353L93.7945 5.03121C92.6235 3.159 91.3353 1.9893 90.1643 1.28793C89.461 0.936676 88.9933 0.936677 88.29 0.702509C88.0556 0.585425 87.8212 0.468338 87.9395 0.23417C88.0556 1.45673e-06 88.2901 0.117084 88.4084 0H96.8387V0.0022809ZM58.197 20.4715C60.8906 21.4059 64.1692 21.639 66.7444 20.8228L76.9329 29.595L77.7522 30.2964C77.8706 30.4146 77.8706 30.5294 77.8706 30.6476C77.8706 30.9989 77.2845 30.9989 77.0501 30.9989H66.2779L58.1981 24.3319L51.6398 19.0677V26.3212C51.7582 28.0752 52.4603 29.3608 54.9184 30.1804C55.1528 30.2986 55.27 30.4157 55.27 30.6488C55.27 31 54.684 31 54.4496 31H40.2804C39.9299 31 39.3438 31 39.3438 30.6488C39.3438 30.4157 39.5783 30.2975 39.8115 30.1804C42.6224 29.246 42.974 27.8421 43.0901 25.6198V5.38132C42.9729 3.27608 42.6213 1.75513 39.8115 0.819589C39.5771 0.819589 39.3438 0.585423 39.3438 0.468339C39.3438 0.00113964 39.9299 0.117089 40.2804 0.117089H63.1142C64.3612 0.111826 65.5969 0.353268 66.75 0.827481C67.9031 1.3017 68.9508 1.99929 69.8326 2.88003C70.7144 3.76077 71.4129 4.80721 71.8878 5.95898C72.3627 7.11075 72.6045 8.34505 72.5994 9.59067C72.6047 10.8363 72.3629 12.0707 71.8881 13.2225C71.4133 14.3744 70.7148 15.4209 69.8329 16.3016C68.9511 17.1824 67.9034 17.88 66.7502 18.3542C65.597 18.8283 64.3613 19.0697 63.1142 19.0642H55.7378C56.0894 19.7656 56.9088 20.0009 57.6109 20.3522C57.8453 20.3533 57.9625 20.4715 58.197 20.4715ZM58.197 16.8453H59.1335C62.1777 16.8453 64.7541 13.5693 64.7541 9.35763C64.7541 5.26424 62.1777 1.98929 59.1335 1.98929H51.6387V16.8453H58.197ZM18.9692 1.99044H12.2949V16.8465H20.0241C23.1855 16.8465 25.6447 13.5704 25.6447 9.35877C25.6447 5.26537 23.1855 1.99044 20.0241 1.99044H18.9692Z"
    fill="#1E293B" />
</svg>