<svg width="120" height="50" viewBox="0 0 120 50" fill="none" xmlns="http://www.w3.org/2000/svg">
  <path
    d="M87.3326 9.45068H91.5134L103.212 36.6024H100.45H97.6888L95.1573 30.3897H83.3819L80.9271 36.6024H75.5188L87.3326 9.45068ZM93.4696 26.2479L89.2887 15.2032L85.0312 26.2479H93.4696Z"
    fill="white" />
  <path
    d="M99.5176 9.45068H108.953C110.257 9.45068 111.51 9.57852 112.712 9.83418C113.94 10.0643 115.026 10.4733 115.973 11.0614C116.919 11.6494 117.673 12.442 118.236 13.4391C118.798 14.4362 119.079 15.7017 119.079 17.2357C119.079 19.2043 118.53 20.8534 117.43 22.1828C116.356 23.5123 114.809 24.3176 112.789 24.5989L120 36.6024H114.17L107.879 25.0974H104.351V36.6024L99.4916 25.4298L99.5176 9.45068ZM108.109 20.9556C108.8 20.9556 109.49 20.9301 110.181 20.8789C110.871 20.8022 111.498 20.6488 112.06 20.4187C112.648 20.1631 113.121 19.7924 113.479 19.3066C113.837 18.7953 114.016 18.0922 114.016 17.1974C114.016 16.4048 113.85 15.7656 113.518 15.2799C113.185 14.7941 112.751 14.4362 112.214 14.2061C111.677 13.9504 111.076 13.7842 110.411 13.7075C109.772 13.6308 109.145 13.5925 108.531 13.5925H104.351V20.9556H108.109Z"
    fill="white" />
  <path
    d="M15.2859 16.0494C14.8075 15.3557 14.1616 14.8533 13.3483 14.5423C12.5588 14.2074 11.7216 14.04 10.8365 14.04C10.3102 14.04 9.7959 14.0998 9.29354 14.2194C8.81511 14.339 8.37256 14.5304 7.96589 14.7935C7.58315 15.0566 7.27217 15.4035 7.03295 15.8341C6.79374 16.2408 6.67413 16.7311 6.67413 17.3053C6.67413 18.1664 6.97315 18.8243 7.57119 19.2788C8.16923 19.7333 8.9108 20.128 9.7959 20.4629C10.681 20.7978 11.6498 21.1208 12.7024 21.4317C13.7549 21.7427 14.7237 22.1733 15.6088 22.7235C16.4939 23.2737 17.2355 24.0033 17.8336 24.9123C18.4316 25.8214 18.7306 27.0294 18.7306 28.5365C18.7306 29.9 18.4794 31.0961 17.9771 32.1247C17.4747 33.1294 16.793 33.9667 15.9318 34.6365C15.0945 35.3063 14.1137 35.8086 12.9894 36.1435C11.8651 36.4784 10.681 36.6459 9.43707 36.6459C7.85825 36.6459 6.33923 36.3827 4.88001 35.8565C3.42079 35.3302 2.16491 34.4451 1.11235 33.2012L4.52118 29.9C5.07138 30.7372 5.78903 31.3951 6.67413 31.8735C7.58315 32.328 8.54001 32.5553 9.54472 32.5553C10.071 32.5553 10.5973 32.4835 11.1235 32.34C11.6498 32.1965 12.1283 31.9812 12.5588 31.6941C12.9894 31.4071 13.3363 31.0482 13.5994 30.6176C13.8626 30.1631 13.9941 29.6488 13.9941 29.0747C13.9941 28.1418 13.6951 27.4241 13.0971 26.9218C12.499 26.4194 11.7575 26.0008 10.8724 25.6659C9.98727 25.307 9.01844 24.9721 7.96589 24.6612C6.91334 24.3502 5.94452 23.9316 5.05942 23.4053C4.17432 22.8551 3.43275 22.1374 2.83471 21.2523C2.23667 20.3433 1.93765 19.1353 1.93765 17.6282C1.93765 16.3125 2.20079 15.1762 2.72706 14.2194C3.27726 13.2625 3.98295 12.4731 4.84412 11.8511C5.72922 11.2053 6.73393 10.7268 7.85825 10.4158C8.98256 10.1049 10.1308 9.94937 11.303 9.94937C12.6426 9.94937 13.9343 10.1527 15.1783 10.5594C16.4461 10.966 17.5824 11.6358 18.5871 12.5688L15.2859 16.0494ZM24.8385 21.1806H24.9102C25.2451 20.4629 25.8312 19.817 26.6685 19.2429C27.5297 18.6449 28.63 18.3459 29.9697 18.3459C31.1179 18.3459 32.0867 18.5372 32.8761 18.92C33.6895 19.3027 34.3473 19.8051 34.8497 20.427C35.352 21.049 35.7108 21.7666 35.9261 22.58C36.1414 23.3933 36.2491 24.2425 36.2491 25.1276V36H31.9432V27.2806C31.9432 26.8021 31.9193 26.2759 31.8714 25.7017C31.8236 25.1037 31.692 24.5535 31.4767 24.0512C31.2853 23.5249 30.9744 23.0943 30.5438 22.7594C30.1132 22.4006 29.5271 22.2212 28.7855 22.2212C28.0679 22.2212 27.4579 22.3408 26.9555 22.58C26.4771 22.8192 26.0704 23.1421 25.7355 23.5488C25.4246 23.9555 25.1973 24.4219 25.0538 24.9482C24.9102 25.4745 24.8385 26.0247 24.8385 26.5988V36H20.5326V8.8729H24.8385V21.1806ZM37.764 27.3882C37.764 26.0247 38.0032 24.7927 38.4816 23.6923C38.984 22.568 39.6538 21.6112 40.4911 20.8217C41.3283 20.0323 42.3211 19.4223 43.4693 18.9917C44.6175 18.5612 45.8375 18.3459 47.1293 18.3459C48.4211 18.3459 49.6411 18.5612 50.7893 18.9917C51.9375 19.4223 52.9303 20.0323 53.7675 20.8217C54.6048 21.6112 55.2626 22.568 55.7411 23.6923C56.2434 24.7927 56.4946 26.0247 56.4946 27.3882C56.4946 28.7518 56.2434 29.9957 55.7411 31.12C55.2626 32.2204 54.6048 33.1653 53.7675 33.9547C52.9303 34.7441 51.9375 35.3541 50.7893 35.7847C49.6411 36.2153 48.4211 36.4306 47.1293 36.4306C45.8375 36.4306 44.6175 36.2153 43.4693 35.7847C42.3211 35.3541 41.3283 34.7441 40.4911 33.9547C39.6538 33.1653 38.984 32.2204 38.4816 31.12C38.0032 29.9957 37.764 28.7518 37.764 27.3882ZM42.0699 27.3882C42.0699 28.058 42.1775 28.7039 42.3928 29.3259C42.632 29.9478 42.9669 30.498 43.3975 30.9765C43.852 31.4549 44.3903 31.8376 45.0122 32.1247C45.6342 32.4118 46.3399 32.5553 47.1293 32.5553C47.9187 32.5553 48.6244 32.4118 49.2464 32.1247C49.8683 31.8376 50.3946 31.4549 50.8252 30.9765C51.2797 30.498 51.6146 29.9478 51.8299 29.3259C52.0691 28.7039 52.1887 28.058 52.1887 27.3882C52.1887 26.7184 52.0691 26.0725 51.8299 25.4506C51.6146 24.8286 51.2797 24.2784 50.8252 23.8C50.3946 23.3216 49.8683 22.9388 49.2464 22.6517C48.6244 22.3647 47.9187 22.2212 47.1293 22.2212C46.3399 22.2212 45.6342 22.3647 45.0122 22.6517C44.3903 22.9388 43.852 23.3216 43.3975 23.8C42.9669 24.2784 42.632 24.8286 42.3928 25.4506C42.1775 26.0725 42.0699 26.7184 42.0699 27.3882ZM58.0143 18.7764H62.1049V21.36H62.1766C62.7986 20.3074 63.6359 19.5419 64.6884 19.0635C65.741 18.5851 66.8772 18.3459 68.0972 18.3459C69.4129 18.3459 70.597 18.5851 71.6496 19.0635C72.7021 19.518 73.5992 20.1519 74.3408 20.9653C75.0823 21.7786 75.6445 22.7355 76.0272 23.8359C76.41 24.9363 76.6014 26.1204 76.6014 27.3882C76.6014 28.6561 76.398 29.8402 75.9914 30.9406C75.5847 32.041 75.0106 32.9978 74.269 33.8112C73.5514 34.6245 72.6782 35.2704 71.6496 35.7488C70.621 36.2033 69.4966 36.4306 68.2766 36.4306C67.4633 36.4306 66.7457 36.3469 66.1237 36.1794C65.5017 36.012 64.9515 35.7967 64.4731 35.5335C63.9947 35.2704 63.588 34.9953 63.2531 34.7082C62.9182 34.3973 62.6431 34.0982 62.4278 33.8112H62.3202V44.1812H58.0143V18.7764ZM72.2955 27.3882C72.2955 26.7184 72.1759 26.0725 71.9366 25.4506C71.7214 24.8286 71.3865 24.2784 70.9319 23.8C70.5014 23.3216 69.9751 22.9388 69.3531 22.6517C68.7312 22.3647 68.0255 22.2212 67.2361 22.2212C66.4466 22.2212 65.741 22.3647 65.119 22.6517C64.497 22.9388 63.9588 23.3216 63.5043 23.8C63.0737 24.2784 62.7388 24.8286 62.4996 25.4506C62.2843 26.0725 62.1766 26.7184 62.1766 27.3882C62.1766 28.058 62.2843 28.7039 62.4996 29.3259C62.7388 29.9478 63.0737 30.498 63.5043 30.9765C63.9588 31.4549 64.497 31.8376 65.119 32.1247C65.741 32.4118 66.4466 32.5553 67.2361 32.5553C68.0255 32.5553 68.7312 32.4118 69.3531 32.1247C69.9751 31.8376 70.5014 31.4549 70.9319 30.9765C71.3865 30.498 71.7214 29.9478 71.9366 29.3259C72.1759 28.7039 72.2955 28.058 72.2955 27.3882Z"
    fill="white" />
</svg>