<svg width="120" height="67" viewBox="0 0 120 67" fill="none" xmlns="http://www.w3.org/2000/svg">
  <path
    d="M87.3326 9.45068H91.5134L103.212 36.6024H100.45H97.6888L95.1573 30.3897H83.3819L80.9271 36.6024H75.5188L87.3326 9.45068ZM93.4696 26.2479L89.2887 15.2032L85.0312 26.2479H93.4696Z"
    fill="white" />
  <path
    d="M99.5176 9.45068H108.953C110.257 9.45068 111.51 9.57852 112.712 9.83418C113.94 10.0643 115.026 10.4733 115.973 11.0614C116.919 11.6494 117.673 12.442 118.236 13.4391C118.798 14.4362 119.079 15.7017 119.079 17.2357C119.079 19.2043 118.53 20.8534 117.43 22.1828C116.356 23.5123 114.809 24.3176 112.789 24.5989L120 36.6024H114.17L107.879 25.0974H104.351V36.6024L99.4916 25.4298L99.5176 9.45068ZM108.109 20.9556C108.8 20.9556 109.49 20.9301 110.181 20.8789C110.871 20.8022 111.498 20.6488 112.06 20.4187C112.648 20.1631 113.121 19.7924 113.479 19.3066C113.837 18.7953 114.016 18.0922 114.016 17.1974C114.016 16.4048 113.85 15.7656 113.518 15.2799C113.185 14.7941 112.751 14.4362 112.214 14.2061C111.677 13.9504 111.076 13.7842 110.411 13.7075C109.772 13.6308 109.145 13.5925 108.531 13.5925H104.351V20.9556H108.109Z"
    fill="white" />
  <path
    d="M15.2859 16.0494C14.8075 15.3557 14.1616 14.8533 13.3483 14.5423C12.5588 14.2074 11.7216 14.04 10.8365 14.04C10.3102 14.04 9.7959 14.0998 9.29354 14.2194C8.81511 14.339 8.37256 14.5304 7.96589 14.7935C7.58315 15.0566 7.27217 15.4035 7.03295 15.8341C6.79374 16.2408 6.67413 16.7311 6.67413 17.3053C6.67413 18.1664 6.97315 18.8243 7.57119 19.2788C8.16923 19.7333 8.9108 20.128 9.7959 20.4629C10.681 20.7978 11.6498 21.1208 12.7024 21.4317C13.7549 21.7427 14.7237 22.1733 15.6088 22.7235C16.4939 23.2737 17.2355 24.0033 17.8336 24.9123C18.4316 25.8214 18.7306 27.0294 18.7306 28.5365C18.7306 29.9 18.4794 31.0961 17.9771 32.1247C17.4747 33.1294 16.793 33.9667 15.9318 34.6365C15.0945 35.3063 14.1137 35.8086 12.9894 36.1435C11.8651 36.4784 10.681 36.6459 9.43707 36.6459C7.85825 36.6459 6.33923 36.3827 4.88001 35.8565C3.42079 35.3302 2.16491 34.4451 1.11235 33.2012L4.52118 29.9C5.07138 30.7372 5.78903 31.3951 6.67413 31.8735C7.58315 32.328 8.54001 32.5553 9.54472 32.5553C10.071 32.5553 10.5973 32.4835 11.1235 32.34C11.6498 32.1965 12.1283 31.9812 12.5588 31.6941C12.9894 31.4071 13.3363 31.0482 13.5994 30.6176C13.8626 30.1631 13.9941 29.6488 13.9941 29.0747C13.9941 28.1418 13.6951 27.4241 13.0971 26.9218C12.499 26.4194 11.7575 26.0008 10.8724 25.6659C9.98727 25.307 9.01844 24.9721 7.96589 24.6612C6.91334 24.3502 5.94452 23.9316 5.05942 23.4053C4.17432 22.8551 3.43275 22.1374 2.83471 21.2523C2.23667 20.3433 1.93765 19.1353 1.93765 17.6282C1.93765 16.3125 2.20079 15.1762 2.72706 14.2194C3.27726 13.2625 3.98295 12.4731 4.84412 11.8511C5.72922 11.2053 6.73393 10.7268 7.85825 10.4158C8.98256 10.1049 10.1308 9.94937 11.303 9.94937C12.6426 9.94937 13.9343 10.1527 15.1783 10.5594C16.4461 10.966 17.5824 11.6358 18.5871 12.5688L15.2859 16.0494ZM24.8385 21.1806H24.9102C25.2451 20.4629 25.8312 19.817 26.6685 19.2429C27.5297 18.6449 28.63 18.3459 29.9697 18.3459C31.1179 18.3459 32.0867 18.5372 32.8761 18.92C33.6895 19.3027 34.3473 19.8051 34.8497 20.427C35.352 21.049 35.7108 21.7666 35.9261 22.58C36.1414 23.3933 36.2491 24.2425 36.2491 25.1276V36H31.9432V27.2806C31.9432 26.8021 31.9193 26.2759 31.8714 25.7017C31.8236 25.1037 31.692 24.5535 31.4767 24.0512C31.2853 23.5249 30.9744 23.0943 30.5438 22.7594C30.1132 22.4006 29.5271 22.2212 28.7855 22.2212C28.0679 22.2212 27.4579 22.3408 26.9555 22.58C26.4771 22.8192 26.0704 23.1421 25.7355 23.5488C25.4246 23.9555 25.1973 24.4219 25.0538 24.9482C24.9102 25.4745 24.8385 26.0247 24.8385 26.5988V36H20.5326V8.8729H24.8385V21.1806ZM37.764 27.3882C37.764 26.0247 38.0032 24.7927 38.4816 23.6923C38.984 22.568 39.6538 21.6112 40.4911 20.8217C41.3283 20.0323 42.3211 19.4223 43.4693 18.9917C44.6175 18.5612 45.8375 18.3459 47.1293 18.3459C48.4211 18.3459 49.6411 18.5612 50.7893 18.9917C51.9375 19.4223 52.9303 20.0323 53.7675 20.8217C54.6048 21.6112 55.2626 22.568 55.7411 23.6923C56.2434 24.7927 56.4946 26.0247 56.4946 27.3882C56.4946 28.7518 56.2434 29.9957 55.7411 31.12C55.2626 32.2204 54.6048 33.1653 53.7675 33.9547C52.9303 34.7441 51.9375 35.3541 50.7893 35.7847C49.6411 36.2153 48.4211 36.4306 47.1293 36.4306C45.8375 36.4306 44.6175 36.2153 43.4693 35.7847C42.3211 35.3541 41.3283 34.7441 40.4911 33.9547C39.6538 33.1653 38.984 32.2204 38.4816 31.12C38.0032 29.9957 37.764 28.7518 37.764 27.3882ZM42.0699 27.3882C42.0699 28.058 42.1775 28.7039 42.3928 29.3259C42.632 29.9478 42.9669 30.498 43.3975 30.9765C43.852 31.4549 44.3903 31.8376 45.0122 32.1247C45.6342 32.4118 46.3399 32.5553 47.1293 32.5553C47.9187 32.5553 48.6244 32.4118 49.2464 32.1247C49.8683 31.8376 50.3946 31.4549 50.8252 30.9765C51.2797 30.498 51.6146 29.9478 51.8299 29.3259C52.0691 28.7039 52.1887 28.058 52.1887 27.3882C52.1887 26.7184 52.0691 26.0725 51.8299 25.4506C51.6146 24.8286 51.2797 24.2784 50.8252 23.8C50.3946 23.3216 49.8683 22.9388 49.2464 22.6517C48.6244 22.3647 47.9187 22.2212 47.1293 22.2212C46.3399 22.2212 45.6342 22.3647 45.0122 22.6517C44.3903 22.9388 43.852 23.3216 43.3975 23.8C42.9669 24.2784 42.632 24.8286 42.3928 25.4506C42.1775 26.0725 42.0699 26.7184 42.0699 27.3882ZM58.0143 18.7764H62.1049V21.36H62.1766C62.7986 20.3074 63.6359 19.5419 64.6884 19.0635C65.741 18.5851 66.8772 18.3459 68.0972 18.3459C69.4129 18.3459 70.597 18.5851 71.6496 19.0635C72.7021 19.518 73.5992 20.1519 74.3408 20.9653C75.0823 21.7786 75.6445 22.7355 76.0272 23.8359C76.41 24.9363 76.6014 26.1204 76.6014 27.3882C76.6014 28.6561 76.398 29.8402 75.9914 30.9406C75.5847 32.041 75.0106 32.9978 74.269 33.8112C73.5514 34.6245 72.6782 35.2704 71.6496 35.7488C70.621 36.2033 69.4966 36.4306 68.2766 36.4306C67.4633 36.4306 66.7457 36.3469 66.1237 36.1794C65.5017 36.012 64.9515 35.7967 64.4731 35.5335C63.9947 35.2704 63.588 34.9953 63.2531 34.7082C62.9182 34.3973 62.6431 34.0982 62.4278 33.8112H62.3202V44.1812H58.0143V18.7764ZM72.2955 27.3882C72.2955 26.7184 72.1759 26.0725 71.9366 25.4506C71.7214 24.8286 71.3865 24.2784 70.9319 23.8C70.5014 23.3216 69.9751 22.9388 69.3531 22.6517C68.7312 22.3647 68.0255 22.2212 67.2361 22.2212C66.4466 22.2212 65.741 22.3647 65.119 22.6517C64.497 22.9388 63.9588 23.3216 63.5043 23.8C63.0737 24.2784 62.7388 24.8286 62.4996 25.4506C62.2843 26.0725 62.1766 26.7184 62.1766 27.3882C62.1766 28.058 62.2843 28.7039 62.4996 29.3259C62.7388 29.9478 63.0737 30.498 63.5043 30.9765C63.9588 31.4549 64.497 31.8376 65.119 32.1247C65.741 32.4118 66.4466 32.5553 67.2361 32.5553C68.0255 32.5553 68.7312 32.4118 69.3531 32.1247C69.9751 31.8376 70.5014 31.4549 70.9319 30.9765C71.3865 30.498 71.7214 29.9478 71.9366 29.3259C72.1759 28.7039 72.2955 28.058 72.2955 27.3882Z"
    fill="white" />
  <g opacity="0.5">
    <path
      d="M103.566 45.9614H105.669L111.555 59.6206H110.165H108.776L107.503 56.4952H101.579L100.344 59.6206H97.623L103.566 45.9614ZM106.654 54.4116L104.55 48.8553L102.408 54.4116H106.654Z"
      fill="white" />
    <path
      d="M109.696 45.9614H114.443C115.099 45.9614 115.729 46.0257 116.334 46.1544C116.951 46.2701 117.498 46.4759 117.974 46.7717C118.45 47.0675 118.829 47.4662 119.112 47.9679C119.395 48.4695 119.537 49.1061 119.537 49.8778C119.537 50.8682 119.26 51.6977 118.707 52.3666C118.167 53.0354 117.389 53.4405 116.372 53.582L120 59.6206H117.067L113.903 53.8328H112.127V59.6206L109.683 54L109.696 45.9614ZM114.018 51.7492C114.366 51.7492 114.713 51.7363 115.06 51.7106C115.408 51.672 115.723 51.5949 116.006 51.4791C116.302 51.3505 116.54 51.164 116.72 50.9196C116.9 50.6624 116.99 50.3087 116.99 49.8585C116.99 49.4598 116.906 49.1383 116.739 48.8939C116.572 48.6495 116.353 48.4695 116.083 48.3537C115.813 48.2251 115.511 48.1415 115.176 48.1029C114.855 48.0643 114.539 48.045 114.231 48.045H112.127V51.7492H114.018Z"
      fill="white" />
    <path
      d="M36.7058 46.0852H38.3304V52.4031H38.3665C38.6553 51.9579 39.0705 51.6089 39.612 51.3561C40.1536 51.0914 40.7312 50.959 41.3449 50.959C42.0068 50.959 42.6025 51.0733 43.132 51.302C43.6735 51.5306 44.1308 51.8495 44.5039 52.2587C44.889 52.6558 45.1838 53.1312 45.3884 53.6848C45.593 54.2263 45.6953 54.816 45.6953 55.4538C45.6953 56.0916 45.593 56.6813 45.3884 57.2228C45.1838 57.7643 44.889 58.2397 44.5039 58.6489C44.1308 59.058 43.6735 59.3769 43.132 59.6056C42.6025 59.8342 42.0068 59.9485 41.3449 59.9485C40.7673 59.9485 40.2017 59.8222 39.6481 59.5695C39.1066 59.3168 38.6794 58.9617 38.3665 58.5044H38.3304V59.7319H36.7058V46.0852ZM41.1464 58.4322C41.5796 58.4322 41.9707 58.36 42.3197 58.2156C42.6687 58.0592 42.9635 57.8546 43.2042 57.6019C43.4449 57.3371 43.6314 57.0242 43.7638 56.6632C43.8962 56.2902 43.9624 55.887 43.9624 55.4538C43.9624 55.0206 43.8962 54.6234 43.7638 54.2624C43.6314 53.8893 43.4449 53.5764 43.2042 53.3237C42.9635 53.059 42.6687 52.8544 42.3197 52.71C41.9707 52.5535 41.5796 52.4753 41.1464 52.4753C40.7131 52.4753 40.322 52.5535 39.973 52.71C39.624 52.8544 39.3292 53.059 39.0885 53.3237C38.8478 53.5764 38.6613 53.8893 38.5289 54.2624C38.3966 54.6234 38.3304 55.0206 38.3304 55.4538C38.3304 55.887 38.3966 56.2902 38.5289 56.6632C38.6613 57.0242 38.8478 57.3371 39.0885 57.6019C39.3292 57.8546 39.624 58.0592 39.973 58.2156C40.322 58.36 40.7131 58.4322 41.1464 58.4322ZM45.4485 51.1756H47.3258L49.8711 57.8546H49.9072L52.326 51.1756H54.077L50.0155 61.5732C49.8711 61.9462 49.7206 62.2832 49.5642 62.584C49.4077 62.8969 49.2212 63.1617 49.0046 63.3783C48.788 63.5949 48.5232 63.7634 48.2103 63.8837C47.9095 64.0041 47.5364 64.0642 47.0912 64.0642C46.8505 64.0642 46.6038 64.0462 46.3511 64.0101C46.1104 63.986 45.8757 63.9258 45.6471 63.8296L45.8456 62.3494C46.1705 62.4817 46.4955 62.5479 46.8204 62.5479C47.0731 62.5479 47.2837 62.5118 47.4522 62.4396C47.6327 62.3795 47.7831 62.2832 47.9035 62.1508C48.0358 62.0305 48.1442 61.8861 48.2284 61.7176C48.3126 61.5491 48.3969 61.3565 48.4811 61.1399L49.0046 59.7861L45.4485 51.1756ZM58.5158 46.9516H63.5521C64.3945 46.9516 65.2068 47.084 65.989 47.3488C66.7712 47.6015 67.4632 47.9926 68.0649 48.5221C68.6666 49.0516 69.148 49.7195 69.509 50.5258C69.87 51.32 70.0506 52.2587 70.0506 53.3418C70.0506 54.4369 69.84 55.3876 69.4188 56.1939C69.0096 56.9881 68.4741 57.65 67.8122 58.1795C67.1623 58.697 66.4343 59.0881 65.628 59.3529C64.8337 59.6056 64.0515 59.7319 63.2813 59.7319H58.5158V46.9516ZM62.4871 57.6741C63.1971 57.6741 63.865 57.5959 64.4908 57.4394C65.1286 57.2709 65.6821 57.0182 66.1515 56.6813C66.6208 56.3323 66.9879 55.887 67.2526 55.3455C67.5294 54.7919 67.6678 54.124 67.6678 53.3418C67.6678 52.5716 67.5474 51.9097 67.3068 51.3561C67.0661 50.8026 66.7291 50.3573 66.2959 50.0203C65.8747 49.6714 65.3693 49.4186 64.7796 49.2622C64.2019 49.0937 63.5641 49.0095 62.8661 49.0095H60.7902V57.6741H62.4871ZM72.4837 56.1578C72.5559 56.8076 72.8086 57.3131 73.2418 57.6741C73.675 58.0351 74.1985 58.2156 74.8123 58.2156C75.3538 58.2156 75.8051 58.1073 76.1661 57.8907C76.5392 57.6621 76.8641 57.3793 77.1409 57.0423L78.6933 58.2156C78.1879 58.8414 77.6223 59.2867 76.9965 59.5514C76.3707 59.8162 75.7148 59.9485 75.0289 59.9485C74.379 59.9485 73.7653 59.8402 73.1877 59.6236C72.61 59.407 72.1106 59.1001 71.6894 58.703C71.2682 58.3059 70.9313 57.8305 70.6785 57.277C70.4379 56.7114 70.3175 56.0856 70.3175 55.3996C70.3175 54.7137 70.4379 54.0939 70.6785 53.5403C70.9313 52.9747 71.2682 52.4934 71.6894 52.0962C72.1106 51.6991 72.61 51.3922 73.1877 51.1756C73.7653 50.959 74.379 50.8507 75.0289 50.8507C75.6306 50.8507 76.1782 50.959 76.6716 51.1756C77.177 51.3802 77.6042 51.6811 77.9532 52.0782C78.3142 52.4753 78.591 52.9687 78.7836 53.5584C78.9881 54.136 79.0904 54.8039 79.0904 55.5621V56.1578H72.4837ZM76.9243 54.5332C76.9122 53.8954 76.7137 53.3959 76.3286 53.0349C75.9435 52.6619 75.408 52.4753 74.722 52.4753C74.0722 52.4753 73.5547 52.6619 73.1696 53.0349C72.7966 53.408 72.5679 53.9074 72.4837 54.5332H76.9243ZM81.5855 56.1578C81.6577 56.8076 81.9104 57.3131 82.3436 57.6741C82.7768 58.0351 83.3003 58.2156 83.9141 58.2156C84.4556 58.2156 84.9069 58.1073 85.2679 57.8907C85.641 57.6621 85.9659 57.3793 86.2427 57.0423L87.7951 58.2156C87.2897 58.8414 86.7241 59.2867 86.0983 59.5514C85.4725 59.8162 84.8166 59.9485 84.1307 59.9485C83.4808 59.9485 82.8671 59.8402 82.2895 59.6236C81.7118 59.407 81.2124 59.1001 80.7912 58.703C80.37 58.3059 80.033 57.8305 79.7803 57.277C79.5396 56.7114 79.4193 56.0856 79.4193 55.3996C79.4193 54.7137 79.5396 54.0939 79.7803 53.5403C80.033 52.9747 80.37 52.4934 80.7912 52.0962C81.2124 51.6991 81.7118 51.3922 82.2895 51.1756C82.8671 50.959 83.4808 50.8507 84.1307 50.8507C84.7324 50.8507 85.2799 50.959 85.7734 51.1756C86.2788 51.3802 86.706 51.6811 87.055 52.0782C87.416 52.4753 87.6928 52.9687 87.8853 53.5584C88.0899 54.136 88.1922 54.8039 88.1922 55.5621V56.1578H81.5855ZM86.0261 54.5332C86.014 53.8954 85.8155 53.3959 85.4304 53.0349C85.0453 52.6619 84.5098 52.4753 83.8238 52.4753C83.174 52.4753 82.6565 52.6619 82.2714 53.0349C81.8983 53.408 81.6697 53.9074 81.5855 54.5332H86.0261ZM88.9543 51.0673H91.0122V52.367H91.0483C91.3612 51.8375 91.7824 51.4524 92.3119 51.2117C92.8414 50.971 93.413 50.8507 94.0267 50.8507C94.6886 50.8507 95.2843 50.971 95.8138 51.2117C96.3433 51.4404 96.7946 51.7593 97.1677 52.1684C97.5407 52.5776 97.8235 53.059 98.0161 53.6126C98.2086 54.1661 98.3049 54.7618 98.3049 55.3996C98.3049 56.0374 98.2026 56.6331 97.998 57.1867C97.7934 57.7403 97.5046 58.2216 97.1316 58.6308C96.7705 59.04 96.3313 59.3649 95.8138 59.6056C95.2963 59.8342 94.7307 59.9485 94.117 59.9485C93.7078 59.9485 93.3468 59.9064 93.0339 59.8222C92.721 59.738 92.4442 59.6296 92.2036 59.4973C91.9629 59.3649 91.7583 59.2265 91.5898 59.0821C91.4213 58.9256 91.2829 58.7752 91.1746 58.6308H91.1205V63.8476H88.9543V51.0673ZM96.1387 55.3996C96.1387 55.0627 96.0786 54.7377 95.9582 54.4249C95.8499 54.112 95.6814 53.8352 95.4528 53.5945C95.2362 53.3538 94.9714 53.1613 94.6585 53.0169C94.3456 52.8724 93.9906 52.8002 93.5935 52.8002C93.1964 52.8002 92.8414 52.8724 92.5285 53.0169C92.2156 53.1613 91.9448 53.3538 91.7162 53.5945C91.4996 53.8352 91.3311 54.112 91.2107 54.4249C91.1024 54.7377 91.0483 55.0627 91.0483 55.3996C91.0483 55.7366 91.1024 56.0615 91.2107 56.3744C91.3311 56.6873 91.4996 56.9641 91.7162 57.2048C91.9448 57.4454 92.2156 57.638 92.5285 57.7824C92.8414 57.9268 93.1964 57.999 93.5935 57.999C93.9906 57.999 94.3456 57.9268 94.6585 57.7824C94.9714 57.638 95.2362 57.4454 95.4528 57.2048C95.6814 56.9641 95.8499 56.6873 95.9582 56.3744C96.0786 56.0615 96.1387 55.7366 96.1387 55.3996Z"
      fill="white" />
  </g>
</svg>