<svg width="995" height="406" viewBox="0 0 995 406" fill="none" xmlns="http://www.w3.org/2000/svg">
  <path
    d="M723.542 78.082H758.18L855.103 302.409H832.223H809.343L788.369 251.08H690.811L670.473 302.409H625.666L723.542 78.082ZM774.387 216.86L739.749 125.609L704.475 216.86H774.387Z"
    fill="black" />
  <path
    d="M824.494 78.082H902.668C913.473 78.082 923.854 79.1382 933.811 81.2505C943.98 83.1516 952.983 86.5312 960.822 91.3896C968.661 96.2479 974.91 102.796 979.571 111.034C984.232 119.272 986.562 129.728 986.562 142.402C986.562 158.666 982.007 172.291 972.898 183.275C964 194.259 951.183 200.913 934.446 203.236L994.189 302.409H945.886L893.77 207.355H864.535V302.409L824.278 210.101L824.494 78.082ZM895.677 173.136C901.397 173.136 907.117 172.925 912.837 172.502C918.557 171.868 923.748 170.601 928.408 168.7C933.281 166.588 937.2 163.525 940.166 159.511C943.132 155.287 944.615 149.478 944.615 142.085C944.615 135.537 943.238 130.256 940.484 126.243C937.73 122.229 934.128 119.272 929.68 117.371C925.231 115.259 920.252 113.886 914.744 113.252C909.448 112.618 904.257 112.301 899.173 112.301H864.535V173.136H895.677Z"
    fill="black" />
  <path
    d="M126.467 131.94C122.509 126.2 117.165 122.044 110.436 119.471C103.905 116.7 96.9779 115.315 89.655 115.315C85.3009 115.315 81.0458 115.81 76.8896 116.799C72.9313 117.789 69.2699 119.372 65.9054 121.549C62.7387 123.726 60.1659 126.596 58.1867 130.159C56.2076 133.523 55.218 137.58 55.218 142.33C55.218 149.455 57.6919 154.898 62.6398 158.658C67.5876 162.418 73.723 165.684 81.0458 168.455C88.3686 171.226 96.3841 173.897 105.092 176.47C113.801 179.043 121.816 182.606 129.139 187.158C136.462 191.71 142.597 197.746 147.545 205.267C152.493 212.788 154.967 222.782 154.967 235.251C154.967 246.532 152.889 256.428 148.732 264.938C144.576 273.25 138.936 280.177 131.811 285.719C124.884 291.26 116.769 295.417 107.467 298.187C98.1653 300.958 88.3686 302.344 78.0771 302.344C65.0147 302.344 52.4472 300.167 40.3745 295.813C28.3017 291.458 17.9112 284.136 9.203 273.844L37.4057 246.532C41.9578 253.459 47.8952 258.902 55.218 262.86C62.7387 266.62 70.6553 268.5 78.9677 268.5C83.3218 268.5 87.6759 267.907 92.03 266.719C96.3841 265.532 100.342 263.75 103.905 261.375C107.467 259.001 110.337 256.032 112.514 252.469C114.691 248.709 115.78 244.454 115.78 239.704C115.78 231.985 113.306 226.048 108.358 221.892C103.41 217.735 97.2747 214.272 89.9519 211.501C82.6291 208.532 74.6136 205.762 65.9054 203.189C57.1971 200.616 49.1816 197.152 41.8588 192.798C34.536 188.246 28.4007 182.309 23.4528 174.986C18.505 167.465 16.031 157.471 16.031 145.002C16.031 134.117 18.2081 124.716 22.5622 116.799C27.1142 108.883 32.9527 102.352 40.0776 97.2058C47.4004 91.8621 55.7128 87.9039 65.0147 85.331C74.3167 82.7581 83.8166 81.4717 93.5144 81.4717C104.598 81.4717 115.285 83.1539 125.576 86.5185C136.066 89.883 145.467 95.4246 153.779 103.143L126.467 131.94ZM205.5 174.392H206.093C208.864 168.455 213.713 163.111 220.64 158.361C227.765 153.413 236.869 150.939 247.952 150.939C257.452 150.939 265.468 152.523 271.999 155.689C278.728 158.856 284.17 163.012 288.327 168.158C292.483 173.304 295.452 179.241 297.233 185.97C299.014 192.699 299.905 199.725 299.905 207.048V297H264.28V224.86C264.28 220.902 264.082 216.548 263.686 211.798C263.291 206.85 262.202 202.298 260.421 198.142C258.837 193.788 256.265 190.225 252.702 187.455C249.14 184.486 244.291 183.002 238.155 183.002C232.218 183.002 227.171 183.991 223.015 185.97C219.057 187.949 215.692 190.621 212.921 193.986C210.349 197.35 208.468 201.21 207.281 205.564C206.093 209.918 205.5 214.47 205.5 219.22V297H169.875V72.5655H205.5V174.392ZM312.438 225.751C312.438 214.47 314.417 204.277 318.376 195.173C322.532 185.871 328.073 177.955 335 171.424C341.927 164.892 350.141 159.846 359.641 156.283C369.14 152.721 379.234 150.939 389.921 150.939C400.609 150.939 410.702 152.721 420.202 156.283C429.702 159.846 437.916 164.892 444.843 171.424C451.77 177.955 457.212 185.871 461.17 195.173C465.327 204.277 467.405 214.47 467.405 225.751C467.405 237.032 465.327 247.324 461.17 256.626C457.212 265.73 451.77 273.547 444.843 280.078C437.916 286.61 429.702 291.656 420.202 295.219C410.702 298.781 400.609 300.562 389.921 300.562C379.234 300.562 369.14 298.781 359.641 295.219C350.141 291.656 341.927 286.61 335 280.078C328.073 273.547 322.532 265.73 318.376 256.626C314.417 247.324 312.438 237.032 312.438 225.751ZM348.063 225.751C348.063 231.293 348.953 236.636 350.734 241.782C352.714 246.928 355.484 251.48 359.047 255.438C362.807 259.396 367.26 262.563 372.406 264.938C377.552 267.313 383.39 268.5 389.921 268.5C396.453 268.5 402.291 267.313 407.437 264.938C412.583 262.563 416.937 259.396 420.499 255.438C424.26 251.48 427.03 246.928 428.812 241.782C430.791 236.636 431.78 231.293 431.78 225.751C431.78 220.209 430.791 214.866 428.812 209.72C427.03 204.574 424.26 200.022 420.499 196.064C416.937 192.106 412.583 188.939 407.437 186.564C402.291 184.189 396.453 183.002 389.921 183.002C383.39 183.002 377.552 184.189 372.406 186.564C367.26 188.939 362.807 192.106 359.047 196.064C355.484 200.022 352.714 204.574 350.734 209.72C348.953 214.866 348.063 220.209 348.063 225.751ZM479.978 154.502H513.821V175.877H514.415C519.561 167.168 526.488 160.835 535.196 156.877C543.904 152.919 553.305 150.939 563.398 150.939C574.284 150.939 584.08 152.919 592.789 156.877C601.497 160.637 608.919 165.882 615.054 172.611C621.189 179.34 625.84 187.257 629.007 196.361C632.174 205.465 633.757 215.262 633.757 225.751C633.757 236.24 632.075 246.037 628.71 255.141C625.346 264.245 620.596 272.162 614.46 278.891C608.523 285.62 601.299 290.964 592.789 294.922C584.278 298.682 574.976 300.562 564.883 300.562C558.154 300.562 552.216 299.87 547.071 298.484C541.925 297.099 537.373 295.318 533.415 293.141C529.456 290.964 526.092 288.688 523.321 286.313C520.55 283.74 518.274 281.266 516.493 278.891H515.602V364.687H479.978V154.502ZM598.132 225.751C598.132 220.209 597.143 214.866 595.164 209.72C593.382 204.574 590.612 200.022 586.851 196.064C583.289 192.106 578.935 188.939 573.789 186.564C568.643 184.189 562.805 183.002 556.274 183.002C549.742 183.002 543.904 184.189 538.758 186.564C533.612 188.939 529.159 192.106 525.399 196.064C521.837 200.022 519.066 204.574 517.087 209.72C515.305 214.866 514.415 220.209 514.415 225.751C514.415 231.293 515.305 236.636 517.087 241.782C519.066 246.928 521.837 251.48 525.399 255.438C529.159 259.396 533.612 262.563 538.758 264.938C543.904 267.313 549.742 268.5 556.274 268.5C562.805 268.5 568.643 267.313 573.789 264.938C578.935 262.563 583.289 259.396 586.851 255.438C590.612 251.48 593.382 246.928 595.164 241.782C597.143 236.636 598.132 231.293 598.132 225.751Z"
    fill="black" />
</svg>