<svg width="200" height="30" viewBox="0 0 200 30" fill="none" xmlns="http://www.w3.org/2000/svg">
<g clip-path="url(#clip0_375_21367)">
<path d="M131.956 4.63179C126.258 4.63179 122.259 9.13029 122.259 14.8617C122.259 20.5931 126.291 25.125 132.056 25.125C137.754 25.125 141.753 20.6265 141.753 14.895C141.719 9.16361 137.687 4.63179 131.956 4.63179ZM131.956 29.7567C123.126 29.7567 116.961 23.1923 116.961 14.895C116.961 6.63112 123.192 0 132.056 0C140.886 0 147.084 6.56448 147.084 14.8617C147.051 23.1256 140.786 29.7567 131.956 29.7567ZM38.4205 4.63179C32.7224 4.63179 28.7571 9.13029 28.7571 14.8617C28.7571 20.5931 32.7891 25.125 38.4872 25.125C44.1853 25.125 48.1839 20.6265 48.1839 14.895C48.1839 9.16361 44.1519 4.63179 38.4205 4.63179ZM38.4205 29.7567C29.5901 29.7567 23.3922 23.1923 23.3922 14.895C23.3922 6.63112 29.6235 0 38.4872 0C47.3176 0 53.5155 6.56448 53.5155 14.8617C53.5155 23.1256 47.2842 29.7567 38.4205 29.7567ZM68.1773 29.2569L60.3799 8.63045V29.2569H55.3815V0.499833H62.5791L69.6101 18.9937L76.6078 0.499833H83.7721V29.2569H78.7071V8.59713L70.8764 29.2569H68.1773ZM184.638 5.0983H178.974V24.6584H184.638C190.736 24.6584 194.635 20.6931 194.635 14.9284C194.635 9.23025 190.87 5.0983 184.638 5.0983ZM184.638 29.2569H173.909V0.466511H184.705C193.969 0.466511 199.933 6.49783 199.933 14.8284C199.933 22.959 194.069 29.2569 184.638 29.2569ZM160.646 5.0983H153.949V13.5621H160.68C164.578 13.5621 166.778 11.896 166.778 9.19693C166.811 6.03132 164.412 5.0983 160.646 5.0983ZM167.411 29.2569L160.28 18.1273H153.949V29.2236H148.917V0.433189H161.646C168.344 0.433189 171.976 3.5988 171.976 8.96368C171.976 13.862 169.21 16.3612 165.678 17.1943L173.342 29.1903L167.411 29.2569ZM116.494 5.0983H100.133V13.5621H115.228V18.1606H100.133V29.2569H95.0683V0.466511H116.494V5.0983ZM14.895 29.2569H9.79673V5.0983H0V0.466511H24.5918V5.0983H14.895V29.2569Z" fill="#1E293B"/>
</g>
<defs>
<clipPath id="clip0_375_21367">
<rect width="200" height="29.7901" fill="white"/>
</clipPath>
</defs>
</svg>
