<svg width="130" height="59" viewBox="0 0 130 59" fill="none" xmlns="http://www.w3.org/2000/svg">
<path d="M32.7919 29.5217C32.7919 21.7599 34.7477 15.3725 39.1213 10.3326V7.09851C39.1213 6.47863 39.2571 6.02047 39.5016 5.69705C39.746 5.37364 40.235 5.10413 40.887 4.91547V3.94524H29.7766V4.91547C30.4285 5.10413 30.9175 5.37364 31.162 5.69705C31.4064 6.02047 31.5423 6.50558 31.5423 7.12545V27.6082C31.5423 29.9799 31.4064 31.7048 31.1891 32.8637C30.9446 33.9956 30.51 34.9389 29.8852 35.6935C28.1195 37.7418 25.077 38.7659 20.785 38.7659C16.5201 38.7659 13.4777 37.7418 11.7119 35.6935C11.06 34.9389 10.571 33.9687 10.3537 32.8637C10.1092 31.7317 10.0006 29.9799 10.0006 27.6082V7.09851C10.0006 6.47863 10.1364 6.02046 10.408 5.6701C10.6797 5.31974 11.1415 5.07718 11.7934 4.88852V3.91829H0.00390625V4.88852C0.655862 5.07718 1.14483 5.34669 1.38931 5.6701C1.6338 5.99351 1.76962 6.45168 1.76962 7.07156V30.0877C1.76962 32.9715 2.12276 35.4779 2.82905 37.5531C3.5625 39.6823 4.83925 41.3263 6.68645 42.566C9.8919 44.6952 14.4556 45.7462 20.4862 45.7462C27.0601 45.7462 31.8682 44.5335 34.8835 42.1079C33.2808 38.3886 32.7919 34.1843 32.7919 29.5217ZM127.108 27.0086C127.38 26.6582 127.896 26.4156 128.602 26.2V25.2298H108.908C108.283 25.2298 107.821 25.0681 107.495 24.7986C107.169 24.5291 106.925 23.9901 106.707 23.2085H105.729V33.1803H106.707C106.898 32.4257 107.169 31.9136 107.495 31.6172C107.821 31.3477 108.283 31.186 108.908 31.186H119.203V36.9804C119.203 36.9804 117.356 40.5919 105.539 41.1848C98.5307 41.5621 94.1029 38.3819 94.1029 38.3819C94.0757 38.5705 94.0757 38.4627 94.0757 38.6514V46.6019C94.0757 46.6019 97.8516 48.3538 105.757 48.3538C113.173 48.3538 121.594 46.1977 128.684 40.2415V39.4599C127.923 39.2443 127.434 39.0018 127.135 38.6514C126.836 38.301 126.728 37.8429 126.728 37.196V28.4639C126.674 27.8171 126.836 27.332 127.108 27.0086ZM95.3796 14.1529C98.2319 11.6734 101.845 10.4067 106.164 10.4067C108.31 10.4067 110.565 10.7571 112.928 11.4039C115.319 12.0777 117.139 12.8862 118.388 13.8295C118.959 14.2607 119.339 14.638 119.475 14.9076C119.638 15.231 119.719 15.6891 119.746 16.3629L120.616 16.8211L125.478 6.6336L124.636 6.17543C124.066 6.6336 123.577 6.90311 123.142 6.90311C122.544 6.90311 121.567 6.6336 120.181 6.06763C117.519 5.01654 115.128 4.26191 113.037 3.80375C110.945 3.34558 108.718 3.23777 106.327 3.12997C97.3898 2.69875 92.6631 5.4747 92.6631 5.4747L85.8448 20.0282L83.0196 19.1119C83.0196 19.1119 82.9925 17.7374 82.8023 17.6566C82.1503 18.2225 81.6071 21.2141 81.4169 25.122C81.3897 25.9844 81.5527 28.41 81.5527 28.41H90.5171C90.5171 28.41 90.2998 26.4695 90.2998 25.2568C90.3813 20.6751 92.147 16.9828 95.3796 14.1529Z" fill="#1E293B"/>
<path d="M82.9954 37.5126H69.7933C68.9784 37.5126 68.3807 37.7013 67.9733 38.1055C67.5658 38.5098 67.2127 39.1836 66.9682 40.1808H65.7186V26.8939H66.9682C67.2127 27.9181 67.5658 28.6457 67.9733 29.0231C68.3807 29.4004 68.9784 29.589 69.7933 29.589H95.1109V30.8827C94.1602 31.1522 93.5354 31.5295 93.1551 31.9607C92.7748 32.3919 92.5846 33.0388 92.5846 33.9281V45.5979C92.5846 46.4604 92.7748 47.1341 93.1279 47.5653C93.5082 47.9966 94.133 48.3739 95.1109 48.6434V49.6406C84.9784 55.8124 75.1719 58.8848 65.6643 58.8848C57.0258 58.8848 50.0173 56.7017 44.5572 52.3626C37.7116 46.8916 34.2617 39.2644 34.2617 29.4812C34.2617 20.3987 37.3042 13.1759 43.4163 7.78567C49.1752 2.69193 56.8629 0.131584 66.4792 0.131584C69.5217 0.131584 72.4011 0.45499 75.1176 1.02096C77.8069 1.61388 80.8766 2.61108 84.2993 4.03948C86.065 4.79411 87.6134 5.30617 88.3741 5.30617C88.9173 5.30617 89.5693 4.98277 90.2756 4.33594L91.3622 4.95581L85.1958 18.4313L84.0005 17.9731C83.9733 17.0838 83.5659 16.2483 83.3757 15.844C83.1584 15.4398 82.6966 14.9546 81.9632 14.3887C80.3604 13.122 78.0514 12.017 74.9546 11.1545C71.885 10.2652 68.9512 9.80699 66.2347 9.80699C60.6388 9.80699 56.0479 11.451 52.3263 14.7929C48.1973 18.5661 46.1056 23.525 46.1056 29.6968C46.1056 35.68 48.1158 40.5042 52.1633 44.1965C55.8578 47.5923 60.7474 49.2633 66.8052 49.2633C69.7661 49.2633 72.6728 48.8859 75.5251 48.1852C78.3774 47.4306 80.8494 46.4334 82.9683 45.1937V37.5126H82.9954Z" fill="#1E293B"/>
</svg>
