<svg width="114" height="67" viewBox="0 0 114 67" fill="none" xmlns="http://www.w3.org/2000/svg">
<g clip-path="url(#clip0_376_21413)">
<path d="M83.4818 25.1478C92.6738 21.0955 98.676 15.0099 99.0031 8.25874C99.0031 8.25874 96.5763 6.38532 88.741 3.4963C81.8606 0.959293 76.6115 0.378658 76.6115 0.378658L76.6357 15.4206C76.6357 17.6683 75.7353 19.9625 74.0354 21.9937C68.8347 20.7353 63.0869 20.0293 57.0585 20.0273H57.0545C51.022 20.0293 45.2682 20.7374 40.0614 21.9978C38.3615 19.9666 37.4591 17.6703 37.4591 15.4206L37.4813 0.378658C37.4813 0.378658 32.2362 0.959293 25.3518 3.4963C17.5164 6.38532 15.0938 8.25874 15.0938 8.25874C15.4188 15.0119 21.423 21.0995 30.6251 25.1518C21.4311 29.2042 15.4289 35.2897 15.1038 42.0389C15.1038 42.0389 17.5285 43.9143 25.3639 46.8013C32.2463 49.3383 37.4934 49.9189 37.4934 49.9189L37.4692 34.877C37.4692 32.6293 38.3696 30.3331 40.0715 28.3039C45.2722 29.5643 51.018 30.2683 57.0464 30.2683C63.0809 30.2683 68.8388 29.5623 74.0435 28.2978C75.7434 30.329 76.6438 32.6293 76.6438 34.877L76.6236 49.9189C76.6236 49.9189 81.8707 49.3383 88.7531 46.8013C96.5885 43.9143 99.0132 42.0389 99.0132 42.0389C98.6861 35.2857 92.6819 29.1981 83.4818 25.1478ZM57.0504 28.5325H57.0444L56.8728 28.5284C51.4298 28.5284 46.9923 27.1932 43.7378 25.1518C46.9923 23.1065 51.4318 21.7692 56.8849 21.7692L57.0524 21.7671H57.0605L57.2321 21.7692C62.6771 21.7692 67.1126 23.1044 70.3671 25.1458C67.1126 27.1891 62.673 28.5284 57.222 28.5284" fill="#1E293B"/>
<path d="M3.06211 66.5842C0.425434 66.5842 0.379 64.5692 0.379 63.7923V60.1264C0.379 59.9039 0.36083 59.6085 0.831232 59.6085H2.19399C2.63612 59.6085 2.60786 59.9241 2.60786 60.1264V63.7923C2.60786 64.0533 2.65631 64.7533 3.61529 64.7533H5.90068C6.84148 64.7533 6.89599 64.0533 6.89599 63.7923V60.1264C6.89599 59.9241 6.86975 59.6085 7.30986 59.6085H8.68271C9.18138 59.6085 9.13697 59.9241 9.13697 60.1264V63.7923C9.13697 64.5692 9.09053 66.5842 6.44376 66.5842" fill="#1E293B"/>
<path d="M15.6879 66.1418C14.7572 64.8854 13.4287 63.3033 12.074 61.6322V66.0952C12.074 66.2894 12.1225 66.5848 11.6602 66.5848H10.3883C9.92796 66.5848 9.98247 66.2894 9.98247 66.0952V60.127C9.98247 59.9247 9.96228 59.6091 10.3883 59.6091H12.8675C13.568 59.6091 14.5654 61.0232 15.2195 61.9559C15.7242 62.668 16.6569 63.7383 17.2828 64.5415V60.127C17.2828 59.9247 17.2545 59.6091 17.7169 59.6091H19.0978C19.5419 59.6091 19.5137 59.9247 19.5137 60.127V66.5848H16.9699C16.4248 66.5848 16.1845 66.6212 15.6879 66.1418Z" fill="#1E293B"/>
<path d="M26.17 64.7497C27.2844 64.7497 27.2037 63.6774 27.2037 63.1878C27.2037 61.543 26.7414 61.4783 26.0045 61.4783H22.5017V64.7497H26.17ZM20.3516 66.5867V59.621H26.4951C26.8706 59.621 29.3861 59.5765 29.3861 62.2248C29.3861 64.9338 29.6809 66.5867 26.5496 66.5867H23.2386L22.5199 65.128V66.5867" fill="#1E293B"/>
<path d="M31.7932 59.6657H37.4522C37.9327 59.6657 37.8681 59.9792 37.8681 60.5619C37.8681 61.1041 37.9408 61.4096 37.4522 61.4096H32.9803C32.8612 61.4096 32.4574 61.3449 32.4574 61.7697C32.4574 62.1946 32.3747 62.3625 32.8249 62.3625H36.7799C36.7799 62.3625 37.3512 63.4529 37.4158 63.6371C37.5087 63.8029 37.4986 63.9608 37.1494 63.9608H33.055L32.4191 62.7226V64.5515C32.4191 64.9764 32.7986 64.8934 32.9077 64.8934H37.5531C38.0155 64.8934 37.9771 65.2151 37.9771 65.7411C37.9771 66.3076 38.0155 66.6191 37.5531 66.6191H31.6721C31.1835 66.6191 30.2266 66.4715 30.2266 64.9399V61.096C30.2266 60.6995 30.4385 59.6657 31.7932 59.6657Z" fill="#1E293B"/>
<path d="M44.3238 61.4586H41.568C41.1097 61.4586 41.1259 61.6164 41.1259 61.756V63.0022H43.9645C45.3393 63.0022 45.3393 62.6583 45.3393 62.2982C45.3393 61.5779 45.2848 61.4586 44.3238 61.4586ZM39.3937 59.6195H45.5876C46.4174 59.6195 47.6227 59.6114 47.6227 61.8551C47.6227 63.3239 47.3118 63.3967 46.6476 63.8499C47.764 64.0441 47.6166 65.4745 47.6166 66.2149C47.6166 66.5932 47.4794 66.5852 47.3663 66.5852H45.5513C45.1718 66.5852 45.2646 65.9843 45.2646 65.6707C45.2646 64.8109 44.7861 64.8493 44.6004 64.8493H41.9274C41.671 64.4042 41.1723 63.4068 41.1723 63.4068V66.2979C41.1723 66.5487 40.922 66.5852 40.8311 66.5852H39.0081C39.107 66.5852 38.8203 66.6034 38.8203 66.3525V60.2204C38.8203 59.7854 39.1252 59.6195 39.3937 59.6195Z" fill="#1E293B"/>
<path d="M57.5495 61.5949L56.4068 63.6828L56.5077 63.7839H58.6377L58.7487 63.6828C58.674 63.525 57.7534 61.7709 57.6605 61.5848L57.5495 61.5949ZM58.2864 59.6669C58.7386 59.6669 59.1787 59.8692 59.6592 60.8019C59.9843 61.4654 62.2333 65.538 62.7017 66.3897V66.6204H60.3598L59.6855 65.4004H56.8388C56.8388 65.4004 56.3603 64.3019 56.2231 63.9984C56.0474 64.2837 55.1066 66.0761 54.7816 66.6204H52.4336V66.4727C52.9121 65.5683 56.1847 59.6669 56.1847 59.6669" fill="#1E293B"/>
<path d="M68.8452 61.4586H66.0894C65.6291 61.4586 65.6473 61.6164 65.6473 61.756V63.0022H68.4859C69.8607 63.0022 69.8607 62.6583 69.8607 62.2982C69.8607 61.5779 69.8062 61.4586 68.8452 61.4586ZM63.9151 59.6195H70.1091C70.9388 59.6195 72.1461 59.6114 72.1461 61.8551C72.1461 63.3239 71.8352 63.3967 71.169 63.8499C72.2834 64.0441 72.136 65.4745 72.136 66.2149C72.136 66.5932 71.9988 66.5852 71.8877 66.5852H70.0727C69.6932 66.5852 69.786 65.9843 69.786 65.6707C69.786 64.8109 69.3076 64.8493 69.1218 64.8493H66.4488C66.1904 64.4042 65.6917 63.4068 65.6917 63.4068V66.2979C65.6917 66.5487 65.4454 66.5852 65.3526 66.5852H63.5275C63.6284 66.5852 63.3438 66.6034 63.3438 66.3525V60.2204C63.3438 59.7854 63.6486 59.6195 63.9151 59.6195Z" fill="#1E293B"/>
<path d="M77.5565 66.5842C77.0942 65.7163 75.8122 63.3229 74.9461 61.755V66.0946C74.9461 66.2889 74.9723 66.5842 74.5342 66.5842H73.2785C72.8081 66.5842 72.8444 66.2889 72.8444 66.0946V60.1264C72.8444 59.9241 72.8182 59.6186 73.2785 59.6186H75.4447C75.7678 59.6186 76.226 59.5437 76.7449 60.5796C77.1325 61.4091 77.9542 63.1308 78.5155 64.0432C79.0949 63.1308 79.9348 61.4091 80.3224 60.5796C80.8291 59.5437 81.2793 59.6186 81.6387 59.6186H83.7949C84.239 59.6186 84.1926 59.9241 84.1926 60.1264V66.0946C84.1926 66.2889 84.2552 66.5842 83.7949 66.5842H82.5331C82.0728 66.5842 82.1091 66.2889 82.1091 66.0946V61.755C81.2349 63.3229 79.961 65.7163 79.4805 66.5842" fill="#1E293B"/>
<path d="M91.1063 64.81C92.1501 64.81 92.1117 63.7317 92.1117 63.0095C92.1117 62.3621 92.2591 61.3465 90.9044 61.3465H88.6069C87.2623 61.3465 87.4198 62.3621 87.4198 63.0095C87.4198 63.7317 87.3552 64.81 88.3969 64.81H91.1063ZM86.9777 66.6025C84.9224 66.6025 85.0133 64.3933 85.0133 62.965C85.0133 61.6519 84.8659 59.6025 87.438 59.5823H92.0027C94.5828 59.5823 94.4153 61.66 94.4153 62.965C94.4153 64.3933 94.5182 66.6025 92.4327 66.6025" fill="#1E293B"/>
<path d="M97.8512 66.5842C95.2125 66.5842 95.1681 64.5692 95.1681 63.7923V60.1264C95.1681 59.9039 95.1499 59.6085 95.6203 59.6085H96.9851C97.4252 59.6085 97.3989 59.9241 97.3989 60.1264V63.7923C97.3989 64.0533 97.4454 64.7533 98.4044 64.7533H100.69C101.631 64.7533 101.685 64.0533 101.685 63.7923V60.1264C101.685 59.9241 101.657 59.6085 102.099 59.6085H103.472C103.97 59.6085 103.926 59.9241 103.926 60.1264V63.7923C103.926 64.5692 103.88 66.5842 101.233 66.5842" fill="#1E293B"/>
<path d="M110.318 61.4586H107.562C107.102 61.4586 107.12 61.6164 107.12 61.756V63.0022H109.959C111.333 63.0022 111.333 62.6583 111.333 62.2982C111.333 61.5779 111.279 61.4586 110.318 61.4586ZM105.386 59.6195H111.582C112.411 59.6195 113.621 59.6114 113.621 61.8551C113.621 63.3239 113.306 63.3967 112.642 63.8499C113.758 64.0441 113.611 65.4745 113.611 66.2149C113.611 66.5932 113.473 66.5852 113.36 66.5852H111.545C111.168 66.5852 111.259 65.9843 111.259 65.6707C111.259 64.8109 110.78 64.8493 110.597 64.8493H107.921C107.665 64.4042 107.166 63.4068 107.166 63.4068V66.2979C107.166 66.5487 106.916 66.5852 106.825 66.5852H105.002C105.101 66.5852 104.816 66.6034 104.816 66.3525V60.2204C104.816 59.7854 105.121 59.6195 105.386 59.6195Z" fill="#1E293B"/>
</g>
<defs>
<clipPath id="clip0_376_21413">
<rect width="114" height="67" fill="white"/>
</clipPath>
</defs>
</svg>
